<?xml version="1.0" encoding="UTF-8"?>
<!-- Created with Inkscape (http://www.inkscape.org/) -->
<svg width="87.935mm" height="17.78mm" version="1.1" viewBox="0 0 87.935 17.78" xmlns="http://www.w3.org/2000/svg">
    <g transform="translate(-6.6195 -4.22)">
        <g stroke-width=".26458" aria-label="РЕСТАР">
            <path d="m12.538 4.22h-5.9182v2.9718l2.8194 4.445h-2.8194v10.363h2.9718v-7.4168h2.9464s5.9182 0 5.9182-5.1816c0-5.1816-5.9182-5.1816-5.9182-5.1816zm0.381 7.3914-2.7686-4.4196h2.3876s2.9718 0 2.9718 2.2098c0 1.7272-1.8034 2.1082-2.5908 2.2098z" />
            <path d="m33.01 7.1918v-2.9718h-11.608v17.78h11.608v-2.9718h-8.636v-2.4638h8.382v-2.7178h-8.382v-1.7272h8.382v-2.7178h-8.382v-2.2098z" />
            <path d="m44.77 19.028c-3.2766 0-5.9182-2.6416-5.9182-5.9182 0-3.2766 2.6416-5.9182 5.9182-5.9182 1.6256 0 3.1242 0.6604 4.191 1.7272l2.0828-2.0828c-1.6002-1.6256-3.81-2.6162-6.2738-2.6162-4.9022 0-8.89 3.9878-8.89 8.89 0 4.9022 3.9878 8.89 8.89 8.89 2.4638 0 4.6736-0.9906 6.2738-2.5908l-2.0828-2.1082c-1.0668 1.0668-2.5654 1.7272-4.191 1.7272zm2.7178-5.9182c0 1.4986-1.2192 2.7432-2.7432 2.7432-1.4986 0-2.7432-1.2446-2.7432-2.7432 0-1.524 1.2446-2.7432 2.7432-2.7432 1.524 0 2.7432 1.2192 2.7432 2.7432z" />
            <path d="m62.906 4.22h-10.414v2.7178h3.7338v15.062h2.9464v-15.062h3.7338z" />
            <path d="m77.841 7.1664c-0.7874-1.3462-2.413-2.9464-5.8166-2.9464-3.3782 0-5.0292 1.6002-5.8166 2.9464-0.8128 1.4224-0.8382 2.8194-0.8382 2.9718v11.862h2.9718v-2.9718h7.3914v2.9718h2.9718v-11.862c0-0.1524-0.0254-1.5494-0.8636-2.9718zm-9.4996 8.9154v-5.9436s0.0254-0.7366 0.4318-1.4732c0.5842-0.9906 1.651-1.4732 3.2512-1.4732 1.5748 0 2.6162 0.4572 3.2258 1.397 0.4572 0.7366 0.4826 1.524 0.4826 1.5748v5.9182z" />
            <path d="m88.636 4.22h-5.9182v2.9718l2.8194 4.445h-2.8194v10.363h2.9718v-7.4168h2.9464s5.9182 0 5.9182-5.1816c0-5.1816-5.9182-5.1816-5.9182-5.1816zm0.381 7.3914-2.7686-4.4196h2.3876s2.9718 0 2.9718 2.2098c0 1.7272-1.8034 2.1082-2.5908 2.2098z" />
        </g>
    </g>
</svg>